<svg width="200" height="82" viewBox="0 0 200 82" fill="none" xmlns="http://www.w3.org/2000/svg">
<g clip-path="url(#clip0)">
<path fill-rule="evenodd" clip-rule="evenodd" d="M40.8921 81.5356C63.476 81.5356 81.7839 63.2834 81.7839 40.7678C81.7839 18.2524 63.476 0 40.8921 0C18.308 0 0 18.2524 0 40.7678C0 63.2834 18.308 81.5356 40.8921 81.5356ZM40.8921 77.7956C61.404 77.7956 78.0325 61.2176 78.0325 40.7678C78.0325 20.318 61.404 3.74018 40.8921 3.74018C20.3799 3.74018 3.75155 20.318 3.75155 40.7678C3.75155 61.2176 20.3799 77.7956 40.8921 77.7956Z" fill="#39C592"/>
<path d="M28.9921 32.049C29.1382 32.2308 29.4214 32.2118 29.5417 32.0121C29.7091 31.7343 30.1353 31.8323 30.1636 32.1551L31.6341 48.878C31.7817 50.5573 29.7392 51.4977 28.5526 50.2974L27.7419 49.4769C27.6013 49.3347 27.5224 49.1427 27.5224 48.9431C27.5224 48.278 26.7072 47.9153 26.1574 48.2922C24.6708 49.3116 23.1015 49.8213 21.4496 49.8213C18.7144 49.8213 16.4531 48.8367 14.6658 46.8677C12.892 44.8582 12.0051 42.35 12.0051 39.3427C12.0051 36.3891 12.892 33.9278 14.6658 31.9588C16.4396 29.9899 18.6603 29.0054 21.3277 29.0054C23.6296 29.0054 26.4256 29.2414 28.2536 31.1294L28.9921 32.049ZM16.6766 39.3427C16.6766 41.2304 17.1843 42.7679 18.1999 43.9548C19.2425 45.1551 20.5559 45.7551 22.1401 45.7551C23.8327 45.7551 25.2002 45.1752 26.2429 44.0155C27.2855 42.8151 27.8068 41.2911 27.8068 39.4436C27.8068 37.5961 27.2855 36.0721 26.2429 34.8719C25.2002 33.6986 23.8462 33.1119 22.1807 33.1119C20.6101 33.1119 19.2966 33.7053 18.2405 34.8921C17.1979 36.0924 16.6766 37.576 16.6766 39.3427Z" fill="#39C592"/>
<path d="M29.5349 35.1421C29.5471 35.0566 29.5532 34.9691 29.5532 34.8827C29.5532 34.7976 29.5593 34.7125 29.5714 34.6282L29.9912 31.7012C30.0445 31.3296 30.2089 30.979 30.4861 30.7249C31.1822 30.0871 31.8009 29.7515 32.6729 29.3172C33.7129 28.7993 35.0506 28.7993 36.0526 28.7993C37.4796 28.7993 39.0306 29.2795 40.3041 30.1325C41.3422 30.8278 42.9199 30.8335 43.9593 30.1403C45.0932 29.3839 46.4252 29.0056 47.9546 29.0056C52.4094 29.0056 54.6369 31.6961 54.6369 37.0772V47.4571C54.6369 48.4501 53.8295 49.2552 52.8332 49.2552H51.85C50.854 49.2552 50.0464 48.4501 50.0464 47.4571V38.3112C50.0464 36.423 49.8164 35.0879 49.356 34.3057C48.8822 33.51 48.1034 33.1122 47.0204 33.1122C45.7612 33.1122 44.8401 33.5842 44.2581 34.5282C43.6895 35.4723 43.405 36.9894 43.405 39.0797V47.4571C43.405 48.4501 42.5974 49.2552 41.6014 49.2552H40.6186C39.6222 49.2552 38.8149 48.4501 38.8149 47.4571V38.3719C38.8149 34.8654 37.7992 33.1122 35.7683 33.1122C34.4819 33.1122 33.5409 33.5909 32.9451 34.5485C32.3629 35.506 32.0717 37.0165 32.0717 39.0797V49.4717C32.0717 51.0801 30.1156 51.8794 28.9834 50.7335L28.1488 49.8892C27.7539 49.4896 27.5687 48.9291 27.6479 48.3741L29.5349 35.1421Z" fill="#39C592"/>
<path d="M54.5861 60.43C54.5824 62.0384 52.6244 62.8333 51.4946 61.6852L50.5627 60.7379C50.2318 60.4015 50.0464 59.9496 50.0464 59.4786V32.3781C50.0464 31.3697 51.2387 30.8316 51.9989 31.4968L52.0237 31.5188C52.121 31.6038 52.234 31.6694 52.3561 31.7119C52.7199 31.8383 53.121 31.743 53.412 31.4909C55.2255 29.9182 57.8764 28.7993 59.9784 28.7993C62.7001 28.7993 65.7129 30.2402 67.4731 32.2361C69.2606 34.2186 70.1542 36.7203 70.1542 39.7411C70.1542 42.6947 69.2672 45.1558 67.4936 47.1247C65.7334 49.0805 63.5126 50.0581 60.8314 50.0581C59.9374 50.0581 59.0797 49.9203 58.2585 49.645C56.7316 49.1327 54.6102 50.0501 54.6065 51.6563L54.5861 60.43ZM65.4826 39.7613C65.4826 37.8735 64.9678 36.3359 63.9389 35.1492C62.8965 33.9488 61.5828 33.3487 59.9985 33.3487C58.3199 33.3487 56.959 33.9286 55.9166 35.0884C54.8738 36.2483 54.3524 37.7722 54.3524 39.6603C54.3524 41.5079 54.8738 43.0318 55.9166 44.2322C56.9455 45.4055 58.2994 45.992 59.9784 45.992C61.5627 45.992 62.8694 45.3986 63.8983 44.2117C64.9546 43.0252 65.4826 41.5415 65.4826 39.7613Z" fill="#39C592"/>
<path d="M108.265 34.1528C108.777 34.1528 109.199 34.3194 109.533 34.6526C109.868 34.9858 110.035 35.417 110.035 35.9462V48.3824C110.035 48.8921 109.868 49.3232 109.533 49.676C109.199 50.0091 108.777 50.1758 108.265 50.1758C107.754 50.1758 107.332 50.0091 106.997 49.676C106.683 49.3429 106.516 48.9214 106.496 48.4117C106.005 48.9802 105.336 49.4702 104.491 49.8819C103.665 50.2738 102.79 50.4698 101.866 50.4698C100.51 50.4698 99.2812 50.1268 98.1803 49.4409C97.0793 48.7352 96.2044 47.7649 95.5558 46.5301C94.9265 45.2954 94.6121 43.8939 94.6121 42.3261C94.6121 40.7579 94.9265 39.3565 95.5558 38.1217C96.1846 36.8672 97.0398 35.8972 98.121 35.2112C99.2219 34.5056 100.431 34.1528 101.748 34.1528C102.692 34.1528 103.577 34.3292 104.403 34.682C105.228 35.0152 105.926 35.4464 106.496 35.9756V35.9462C106.496 35.4366 106.663 35.0152 106.997 34.682C107.332 34.3292 107.754 34.1528 108.265 34.1528ZM102.309 47.2358C103.586 47.2358 104.629 46.7751 105.434 45.8541C106.241 44.9133 106.644 43.7371 106.644 42.3261C106.644 40.9148 106.241 39.7389 105.434 38.7981C104.629 37.8574 103.586 37.3868 102.309 37.3868C101.05 37.3868 100.018 37.8574 99.2124 38.7981C98.4062 39.7389 98.0033 40.9148 98.0033 42.3261C98.0033 43.7371 98.3963 44.9133 99.1828 45.8541C99.9887 46.7751 101.031 47.2358 102.309 47.2358Z" fill="#39C592"/>
<path d="M132.065 34.1528C134.011 34.1528 135.358 34.7506 136.105 35.9462C136.852 37.1221 137.226 38.7586 137.226 40.8559V48.3824C137.226 48.8921 137.059 49.3232 136.724 49.676C136.39 50.0091 135.967 50.1758 135.456 50.1758C134.945 50.1758 134.523 50.0091 134.188 49.676C133.854 49.3232 133.687 48.8921 133.687 48.3824V40.8559C133.687 39.778 133.471 38.9352 133.038 38.3276C132.625 37.7005 131.888 37.3868 130.826 37.3868C129.725 37.3868 128.86 37.7199 128.231 38.3864C127.622 39.0332 127.317 39.8563 127.317 40.8559V48.3824C127.317 48.8921 127.15 49.3232 126.816 49.676C126.482 50.0091 126.059 50.1758 125.548 50.1758C125.037 50.1758 124.614 50.0091 124.28 49.676C123.946 49.3232 123.778 48.8921 123.778 48.3824V40.8559C123.778 39.778 123.562 38.9352 123.129 38.3276C122.717 37.7005 121.98 37.3868 120.918 37.3868C119.817 37.3868 118.952 37.7199 118.323 38.3864C117.713 39.0332 117.409 39.8563 117.409 40.8559V48.3824C117.409 48.8921 117.242 49.3232 116.907 49.676C116.573 50.0091 116.15 50.1758 115.639 50.1758C115.128 50.1758 114.705 50.0091 114.371 49.676C114.037 49.3232 113.87 48.8921 113.87 48.3824V36.2402C113.87 35.7306 114.037 35.3092 114.371 34.976C114.705 34.6232 115.128 34.4468 115.639 34.4468C116.15 34.4468 116.573 34.6232 116.907 34.976C117.242 35.3092 117.409 35.7306 117.409 36.2402V36.7107C117.939 36.005 118.608 35.4072 119.414 34.9172C120.24 34.4076 121.154 34.1528 122.157 34.1528C124.634 34.1528 126.216 35.2308 126.904 37.3868C127.357 36.5638 128.035 35.8188 128.939 35.1524C129.863 34.486 130.905 34.1528 132.065 34.1528Z" fill="#39C592"/>
<path d="M149.224 34.1528C150.58 34.1528 151.809 34.5056 152.91 35.2112C154.011 35.8972 154.876 36.8577 155.505 38.0925C156.154 39.3272 156.478 40.7287 156.478 42.2965C156.478 43.8647 156.164 45.2756 155.535 46.5301C154.906 47.7649 154.04 48.7352 152.94 49.4409C151.858 50.1268 150.659 50.4698 149.342 50.4698C148.398 50.4698 147.504 50.2837 146.658 49.9111C145.833 49.5192 145.145 49.0486 144.594 48.4998V54.2625C144.594 54.7718 144.427 55.1934 144.093 55.5265C143.759 55.8793 143.336 56.0555 142.825 56.0555C142.314 56.0555 141.891 55.8892 141.557 55.5561C141.223 55.2226 141.055 54.7916 141.055 54.2625V36.2402C141.055 35.7306 141.223 35.3092 141.557 34.976C141.891 34.6232 142.314 34.4468 142.825 34.4468C143.336 34.4468 143.759 34.6232 144.093 34.976C144.427 35.3092 144.594 35.7306 144.594 36.2402V36.3578C145.066 35.7698 145.725 35.2602 146.57 34.829C147.415 34.3782 148.3 34.1528 149.224 34.1528ZM148.782 47.2358C150.04 47.2358 151.072 46.7652 151.878 45.8245C152.684 44.8837 153.087 43.7078 153.087 42.2965C153.087 40.8855 152.684 39.7192 151.878 38.7981C151.092 37.8574 150.059 37.3868 148.782 37.3868C147.504 37.3868 146.462 37.8574 145.656 38.7981C144.85 39.7192 144.447 40.8855 144.447 42.2965C144.447 43.7078 144.85 44.8837 145.656 45.8245C146.462 46.7652 147.504 47.2358 148.782 47.2358Z" fill="#39C592"/>
<path d="M166.949 34.7998C168.777 34.7998 170.114 35.3388 170.959 36.4168C171.824 37.4751 172.257 38.8865 172.257 40.6503V49.2941C172.257 49.5486 172.168 49.7643 171.991 49.9409C171.814 50.0974 171.608 50.176 171.372 50.176C171.116 50.176 170.9 50.0974 170.723 49.9409C170.566 49.7643 170.487 49.5486 170.487 49.2941V40.7387C170.487 39.4645 170.163 38.4356 169.514 37.6517C168.885 36.8481 167.902 36.4462 166.565 36.4462C165.72 36.4462 164.914 36.6422 164.147 37.0342C163.4 37.4261 162.791 37.9556 162.319 38.6217C161.847 39.2685 161.611 39.9742 161.611 40.7387V49.2941C161.611 49.5486 161.523 49.7643 161.346 49.9409C161.188 50.0974 160.982 50.176 160.726 50.176C160.471 50.176 160.255 50.0974 160.078 49.9409C159.92 49.7643 159.842 49.5486 159.842 49.2941V36.1228C159.842 35.868 159.92 35.6622 160.078 35.5054C160.255 35.329 160.471 35.2408 160.726 35.2408C160.982 35.2408 161.188 35.329 161.346 35.5054C161.523 35.6622 161.611 35.868 161.611 36.1228V37.7398C162.142 36.8971 162.899 36.2012 163.882 35.6524C164.885 35.084 165.907 34.7998 166.949 34.7998Z" fill="#39C592"/>
<path d="M189.63 41.7969C189.63 42.0323 189.541 42.2378 189.364 42.4144C189.187 42.5713 188.981 42.6495 188.745 42.6495H177.598C177.598 43.8258 177.834 44.8839 178.306 45.8247C178.797 46.7461 179.485 47.481 180.37 48.0298C181.274 48.5589 182.336 48.8236 183.555 48.8236C184.498 48.8236 185.344 48.6276 186.091 48.2356C186.838 47.8437 187.438 47.3439 187.89 46.7362C188.106 46.56 188.312 46.4715 188.509 46.4715C188.706 46.4715 188.883 46.5501 189.04 46.7069C189.197 46.8634 189.276 47.04 189.276 47.236C189.276 47.4517 189.177 47.6572 188.981 47.8532C188.352 48.6177 187.555 49.2448 186.592 49.7351C185.649 50.225 184.646 50.47 183.584 50.47C182.071 50.47 180.734 50.1464 179.574 49.4996C178.414 48.8528 177.509 47.9515 176.861 46.7951C176.212 45.6188 175.887 44.2667 175.887 42.7376C175.887 41.1307 176.202 39.7292 176.831 38.5336C177.48 37.3183 178.335 36.3972 179.397 35.77C180.459 35.1232 181.589 34.7998 182.788 34.7998C183.968 34.7998 185.069 35.0742 186.091 35.623C187.133 36.1718 187.978 36.9753 188.627 38.0338C189.276 39.0923 189.61 40.3464 189.63 41.7969ZM182.788 36.505C181.648 36.505 180.586 36.8971 179.603 37.681C178.64 38.4649 178.021 39.5921 177.746 41.062H187.801V40.8269C187.703 39.945 187.408 39.1804 186.917 38.5336C186.425 37.8671 185.806 37.3673 185.059 37.0342C184.331 36.6813 183.574 36.505 182.788 36.505Z" fill="#39C592"/>
<path d="M196.225 36.8578V46.7068C196.225 47.4516 196.363 47.9609 196.638 48.2355C196.913 48.4904 197.277 48.6176 197.73 48.6176C197.847 48.6176 197.995 48.5982 198.172 48.5588C198.349 48.4999 198.486 48.4706 198.585 48.4706C198.762 48.4706 198.909 48.5489 199.027 48.7057C199.165 48.8432 199.233 49.0096 199.233 49.2055C199.233 49.4801 199.076 49.7152 198.762 49.9112C198.447 50.0878 198.074 50.1759 197.641 50.1759C197.11 50.1759 196.638 50.1269 196.225 50.0289C195.813 49.931 195.41 49.637 195.017 49.1467C194.643 48.6567 194.456 47.8728 194.456 46.7949V36.8578H192.303C192.067 36.8578 191.861 36.7792 191.684 36.6224C191.527 36.4657 191.448 36.2697 191.448 36.0345C191.448 35.7993 191.527 35.6033 191.684 35.4465C191.861 35.2897 192.067 35.2113 192.303 35.2113H194.456V31.9479C194.456 31.6931 194.535 31.4873 194.692 31.3305C194.869 31.1541 195.085 31.0659 195.341 31.0659C195.596 31.0659 195.803 31.1541 195.96 31.3305C196.137 31.4873 196.225 31.6931 196.225 31.9479V35.2113H199.175C199.391 35.2113 199.577 35.2995 199.735 35.4759C199.912 35.6523 200 35.8483 200 36.0639C200 36.2991 199.921 36.4951 199.764 36.652C199.607 36.7891 199.41 36.8578 199.175 36.8578H196.225Z" fill="#39C592"/>
</g>
<defs>
<clipPath id="clip0">
<rect width="200" height="81.5357" fill="white"/>
</clipPath>
</defs>
</svg>
